#!OML:ASF F:\VICON\USERDATA\INSTALL\rory3\rory3.ASF
:FULLY-SPECIFIED
:DEGREES
2121
root 0.290037 17.4632 -0.301432 3.48657 2.0065 -1.22635
lowerback -0.732812 -0.115748 -0.346762
upperback -3.00378 -0.137085 0.89809
thorax -2.66694 -0.0476368 1.11815
lowerneck -16.5698 -10.8483 -14.0439
upperneck 30.4934 -16.1636 12.634
head 15.919 -6.98397 4.50961
rclavicle 3.09669e-015 1.55549e-014
rhumerus -57.7378 53.0629 -117.134
rradius 49.5188
rwrist -16.0533
rhand -0.764017 5.68747
rfingers 7.12502
rthumb 24.8584 -22.7164
lclavicle 3.09669e-015 1.55549e-014
lhumerus -62.7543 -64.3022 131.836
lradius 46.5314
lwrist 26.8109
lhand -3.26291 36.6106
lfingers 7.12502
lthumb 22.4616 65.3244
rfemur 0 0 0
rtibia 0
rfoot 0 0
rtoes 0
lfemur -5.36622 -17.7193 -17.7683
ltibia 16.0665
lfoot -13.7989 13.7495
ltoes -18.0284
2122
root 0.289735 17.4629 -0.307142 3.42083 1.97178 -1.26027
lowerback -0.721904 -0.0736996 -0.311838
upperback -2.97958 -0.0813825 0.870475
thorax -2.64939 -0.0211692 1.06928
lowerneck -16.4226 -10.8618 -14.0314
upperneck 30.4544 -16.2184 12.6785
head 15.8808 -7.00782 4.51878
rclavicle -1.38217e-015 -1.32689e-014
rhumerus -59.1646 55.132 -118.085
rradius 52.1966
rwrist -17.1702
rhand -1.04253 5.25146
rfingers 7.12502
rthumb 24.5914 -23.189
lclavicle -1.38217e-015 -1.32689e-014
lhumerus -65.29 -66.4299 133.649
lradius 49.2252
lwrist 28.9257
lhand -4.01316 37.0092
lfingers 7.12502
lthumb 21.7413 65.8082
rfemur 0 0 0
rtibia 0
rfoot 0 0
rtoes 0
lfemur -5.30317 -17.6037 -17.7414
ltibia 16.0314
lfoot -13.6705 13.6791
ltoes -18.3991
2123
root 0.290417 17.4628 -0.314105 3.39808 1.95173 -1.2624
lowerback -0.69949 -0.020711 -0.292811
upperback -2.98595 -0.0113408 0.827376
thorax -2.67 0.0128889 1.01328
lowerneck -16.3081 -10.9091 -14.0149
upperneck 30.4507 -16.3192 12.6988
head 15.8726 -7.05116 4.50591
rclavicle 1.59649e-015 8.54774e-015
rhumerus -60.5184 57.2011 -118.908
rradius 54.9723
rwrist -18.585
rhand -1.34568 5.05256
rfingers 7.12502
rthumb 24.3008 -23.4271
lclavicle 1.59649e-015 8.54774e-015
lhumerus -67.8961 -68.5586 135.489
lradius 52.0052
lwrist 31.006
lhand -4.66055 37.3618
lfingers 7.12502
lthumb 21.1195 66.2316
rfemur 0 0 0
rtibia 0
rfoot 0 0
rtoes 0
lfemur -5.30245 -17.5574 -17.7414
ltibia 16.0246
lfoot -13.6409 13.6514
ltoes -18.3943
2124
root 0.29253 17.4631 -0.320581 3.38953 1.9919 -1.1652
lowerback -0.734357 -0.00348547 -0.360737
upperback -2.98781 0.00998042 0.778191
thorax -2.65271 0.0244741 1.00048
lowerneck -16.1933 -10.938 -14.0561
upperneck 30.4808 -16.3868 12.7396
head 15.8837 -7.08447 4.52084
rclavicle -8.79467e-015 -1.29707e-014
rhumerus -61.8407 59.3138 -119.589
rradius 57.9281
rwrist -20.2838
rhand -1.5893 4.74984
rfingers 7.12502
rthumb 24.0673 -23.7609
lclavicle -8.79467e-015 -1.29707e-014
lhumerus -69.8656 -70.5181 136.638
lradius 54.8342
lwrist 32.6974
lhand -4.91648 37.4749
lfingers 7.12502
lthumb 20.8737 66.3719
rfemur 0 0 0
rtibia 0
rfoot 0 0
rtoes 0
lfemur -5.34268 -17.5048 -17.85
ltibia 16.0728
lfoot -13.6605 13.5271
ltoes -18.1889
2125
root 0.292249 17.464 -0.325481 3.34017 1.97019 -1.24401
lowerback -0.791769 0.023315 -0.299398
upperback -2.96384 0.0463503 0.789593
thorax -2.59634 0.0410616 0.977177
lowerneck -16.0769 -10.9329 -14.0398
upperneck 30.5014 -16.4064 12.7491
head 15.8699 -7.09525 4.52364
rclavicle 1.96921e-015 7.60351e-015
rhumerus -63.1204 61.4787 -120.158
rradius 61.0588
rwrist -22.1178
rhand -2.14471 4.60259
rfingers 7.12502
rthumb 23.5346 -23.9776
lclavicle 1.96921e-015 7.60351e-015
lhumerus -71.2519 -72.3555 137.139
lradius 57.703
lwrist 34.5768
lhand -5.36104 37.0853
lfingers 7.12502
lthumb 20.4465 66.0288
rfemur 0 0 0
rtibia 0
rfoot 0 0
rtoes 0
lfemur -5.32328 -17.3475 -17.7707
ltibia 16.1245
lfoot -13.7148 13.4589
ltoes -18.338
2126
root 0.291003 17.4638 -0.330526 3.26148 1.94858 -1.34936
lowerback -0.678437 0.0419955 -0.198332
upperback -3.02263 0.0730541 0.805814
thorax -2.72113 0.0527445 0.93683
lowerneck -15.9749 -10.941 -14.0338
upperneck 30.6354 -16.423 12.6569
head 15.9013 -7.11616 4.48804
rclavicle -4.28785e-015 5.71506e-016
rhumerus -64.6157 63.6254 -120.856
rradius 64.2087
rwrist -23.8312
rhand -2.84241 4.69896
rfingers 7.12502
rthumb 22.8652 -23.9655
lclavicle -4.28785e-015 5.71506e-016
lhumerus -72.8625 -74.0727 137.816
lradius 60.5529
lwrist 37.0159
lhand -6.038 36.3566
lfingers 7.12502
lthumb 19.7958 65.3685
rfemur 0 0 0
rtibia 0
rfoot 0 0
rtoes 0
lfemur -5.26749 -17.264 -17.6713
ltibia 16.1554
lfoot -13.7195 13.5353
ltoes -19.042
2127
root 0.29083 17.4631 -0.336287 3.19681 1.94906 -1.37469
lowerback -0.526223 0.0179978 -0.138596
upperback -3.09469 0.0423067 0.797741
thorax -2.8806 0.036394 0.89575
lowerneck -15.974 -10.9147 -14.0623
upperneck 30.8334 -16.3903 12.6078
head 15.9881 -7.10984 4.48709
rclavicle -5.42931e-015 -1.2424e-016
rhumerus -65.9602 65.9193 -121.448
rradius 67.368
rwrist -25.5968
rhand -3.25211 4.36694
rfingers 7.12502
rthumb 22.472 -24.3456
lclavicle -5.42931e-015 -1.2424e-016
lhumerus -73.2582 -75.6859 137.176
lradius 63.5903
lwrist 39.5623
lhand -5.84382 36.3815
lfingers 7.12502
lthumb 19.9825 65.374
rfemur 0 0 0
rtibia 0
rfoot 0 0
rtoes 0
lfemur -5.25246 -17.2687 -17.6494
ltibia 16.2066
lfoot -13.7611 13.4462
ltoes -18.4913
2128
root 0.293512 17.462 -0.341735 3.17257 2.01627 -1.2942
lowerback -0.504706 -0.0358415 -0.168519
upperback -3.149 -0.0299712 0.779605
thorax -2.94759 0.00112954 0.895486
lowerneck -15.8823 -10.8762 -14.1368
upperneck 30.9697 -16.3288 12.5697
head 16.0252 -7.10097 4.5065
rclavicle 5.57529e-015 -2.38542e-015
rhumerus -66.7424 68.1479 -121.379
rradius 70.6674
rwrist -27.3973
rhand -3.15237 3.83613
rfingers 7.12502
rthumb 22.5677 -24.8648
lclavicle 5.57529e-015 -2.38542e-015
lhumerus -72.8494 -77.4807 135.745
lradius 66.7623
lwrist 42.415
lhand -5.27121 36.9853
lfingers 7.12502
lthumb 20.5328 65.9194
rfemur 0 0 0
rtibia 0
rfoot 0 0
rtoes 0
lfemur -5.28308 -17.3324 -17.7412
ltibia 16.2353
lfoot -13.6805 13.4078
ltoes -18.3994
2129
root 0.29767 17.462 -0.346363 3.15297 2.15721 -1.24684
lowerback -0.515895 -0.122538 -0.193871
upperback -3.23525 -0.144991 0.800773
thorax -3.02836 -0.0548494 0.934075
lowerneck -15.6286 -10.797 -14.1595
upperneck 31.0511 -16.1984 12.4427
head 15.966 -7.07687 4.49874
rclavicle 4.92924e-015 7.8023e-015
rhumerus -67.2796 70.3612 -121.017
rradius 73.9859
rwrist -29.2112
rhand -3.00871 3.46376
rfingers 7.12502
rthumb 22.7056 -25.2204
lclavicle 4.92924e-015 7.8023e-015
lhumerus -72.2104 -79.3009 134.14
lradius 69.8949
lwrist 45.6561
lhand -5.09527 37.2886
lfingers 7.12502
lthumb 20.7019 66.2044
rfemur 0 0 0
rtibia 0
rfoot 0 0
rtoes 0
lfemur -5.2997 -17.386 -17.7961
ltibia 16.207
lfoot -13.4737 13.4012
ltoes -19.247
2130
root 0.303056 17.4628 -0.348866 3.08719 2.25019 -1.24039
lowerback -0.504086 -0.174139 -0.13351
upperback -3.30996 -0.213325 0.772818
thorax -3.11129 -0.0905943 0.87332
lowerneck -15.3882 -10.7214 -14.0628
upperneck 31.1993 -16.111 12.2903
head 15.9341 -7.05832 4.45245
rclavicle 6.06293e-015 5.41688e-015
rhumerus -67.0505 72.5168 -119.968
rradius 77.2606
rwrist -31.1523
rhand -2.85682 3.13283
rfingers 7.12502
rthumb 22.8514 -25.5334
lclavicle 6.06293e-015 5.41688e-015
lhumerus -70.7467 -81.1819 131.633
lradius 73.0889
lwrist 49.0074
lhand -4.97861 37.2349
lfingers 7.12502
lthumb 20.814 66.1385
rfemur 0 0 0
rtibia 0
rfoot 0 0
rtoes 0
lfemur -5.22165 -17.4764 -17.8385
ltibia 16.1522
lfoot -13.4315 13.3796
ltoes -19.1989
2131
root 0.303981 17.4633 -0.353563 2.97616 2.13721 -1.16818
lowerback -0.450746 -0.167787 -0.225981
upperback -3.31173 -0.206853 0.740844
thorax -3.14313 -0.0852238 0.892364
lowerneck -15.364 -10.6525 -13.9384
upperneck 31.3949 -16.0272 12.1543
head 15.9762 -7.02466 4.40066
rclavicle 1.94747e-015 7.20594e-016
rhumerus -65.4555 74.6982 -117.561
rradius 80.5291
rwrist -33.277
rhand -2.75761 2.88395
rfingers 7.12502
rthumb 22.9466 -25.7705
lclavicle 1.94747e-015 7.20594e-016
lhumerus -65.1135 -82.8589 124.911
lradius 76.303
lwrist 52.1573
lhand -4.83349 37.1618
lfingers 7.12502
lthumb 20.9534 66.0501
rfemur 0 0 0
rtibia 0
rfoot 0 0
rtoes 0
lfemur -5.0779 -17.4919 -17.9732
ltibia 16.1566
lfoot -13.407 13.4672
ltoes -19.0574
2132
root 0.304516 17.4656 -0.356073 3.00416 2.05805 -1.17073
lowerback -0.579581 -0.170255 -0.242886
upperback -3.3392 -0.209662 0.77042
thorax -3.09868 -0.0857765 0.931877
lowerneck -15.335 -10.609 -13.9957
upperneck 31.5675 -15.951 12.0927
head 16.0385 -7.00704 4.40877
rclavicle -3.55328e-015 2.16178e-014
rhumerus -62.0072 76.6881 -113.184
rradius 83.7884
rwrist -35.4616
rhand -2.44703 2.75687
rfingers 7.12502
rthumb 23.2446 -25.8602
lclavicle -3.55328e-015 2.16178e-014
lhumerus -54.2985 -84.2381 113.092
lradius 79.4647
lwrist 54.9566
lhand -4.89013 37.1361
lfingers 7.12502
lthumb 20.899 66.0304
rfemur 0 0 0
rtibia 0
rfoot 0 0
rtoes 0
lfemur -5.11467 -17.471 -17.9689
ltibia 16.1976
lfoot -13.4587 13.5045
ltoes -18.8147
